<mxfile host="Electron" modified="2024-04-05T03:05:03.808Z" agent="Mozilla/5.0 (Windows NT 10.0; Win64; x64) AppleWebKit/537.36 (KHTML, like Gecko) draw.io/21.1.2 Chrome/106.0.5249.199 Electron/21.4.3 Safari/537.36" etag="eeP8RoshZHtyiEWDFdJh" version="21.1.2" type="device">
  <diagram name="Page-1" id="HnhKRV7L1HyrGnIMQBWh">
    <mxGraphModel dx="1550" dy="414" grid="1" gridSize="10" guides="1" tooltips="1" connect="1" arrows="1" fold="1" page="1" pageScale="1" pageWidth="850" pageHeight="1100" math="0" shadow="0">
      <root>
        <mxCell id="0" />
        <mxCell id="1" parent="0" />
        <mxCell id="m43kG4cEQO-_27Gcgvcb-1" value="Deepweb puller" style="rounded=1;whiteSpace=wrap;html=1;" vertex="1" parent="1">
          <mxGeometry x="50" y="160" width="120" height="60" as="geometry" />
        </mxCell>
        <mxCell id="m43kG4cEQO-_27Gcgvcb-2" value="FastAPI server" style="rounded=1;whiteSpace=wrap;html=1;" vertex="1" parent="1">
          <mxGeometry x="305" y="160" width="120" height="60" as="geometry" />
        </mxCell>
        <mxCell id="m43kG4cEQO-_27Gcgvcb-3" value="Grafana" style="rounded=1;whiteSpace=wrap;html=1;" vertex="1" parent="1">
          <mxGeometry x="560" y="160" width="120" height="60" as="geometry" />
        </mxCell>
        <mxCell id="m43kG4cEQO-_27Gcgvcb-5" value="" style="endArrow=classic;html=1;rounded=0;" edge="1" parent="1" target="m43kG4cEQO-_27Gcgvcb-1">
          <mxGeometry width="50" height="50" relative="1" as="geometry">
            <mxPoint x="20" y="120" as="sourcePoint" />
            <mxPoint x="100" y="80" as="targetPoint" />
          </mxGeometry>
        </mxCell>
        <mxCell id="m43kG4cEQO-_27Gcgvcb-6" value="" style="endArrow=classic;html=1;rounded=0;entryX=0;entryY=0.5;entryDx=0;entryDy=0;" edge="1" parent="1" target="m43kG4cEQO-_27Gcgvcb-1">
          <mxGeometry width="50" height="50" relative="1" as="geometry">
            <mxPoint x="-50" y="190" as="sourcePoint" />
            <mxPoint x="20" y="170" as="targetPoint" />
          </mxGeometry>
        </mxCell>
        <mxCell id="m43kG4cEQO-_27Gcgvcb-7" value="" style="endArrow=classic;html=1;rounded=0;entryX=0.205;entryY=0.98;entryDx=0;entryDy=0;entryPerimeter=0;" edge="1" parent="1" target="m43kG4cEQO-_27Gcgvcb-1">
          <mxGeometry width="50" height="50" relative="1" as="geometry">
            <mxPoint x="10" y="270" as="sourcePoint" />
            <mxPoint x="70" y="230" as="targetPoint" />
          </mxGeometry>
        </mxCell>
        <mxCell id="m43kG4cEQO-_27Gcgvcb-8" value="" style="endArrow=classic;html=1;rounded=0;exitX=1;exitY=0.5;exitDx=0;exitDy=0;entryX=0;entryY=0.5;entryDx=0;entryDy=0;" edge="1" parent="1" source="m43kG4cEQO-_27Gcgvcb-1" target="m43kG4cEQO-_27Gcgvcb-2">
          <mxGeometry width="50" height="50" relative="1" as="geometry">
            <mxPoint x="240" y="210" as="sourcePoint" />
            <mxPoint x="290" y="160" as="targetPoint" />
          </mxGeometry>
        </mxCell>
        <mxCell id="m43kG4cEQO-_27Gcgvcb-9" value="push with endpoint" style="edgeLabel;html=1;align=center;verticalAlign=middle;resizable=0;points=[];" vertex="1" connectable="0" parent="m43kG4cEQO-_27Gcgvcb-8">
          <mxGeometry x="0.0938" y="1" relative="1" as="geometry">
            <mxPoint x="-4" y="-9" as="offset" />
          </mxGeometry>
        </mxCell>
        <mxCell id="m43kG4cEQO-_27Gcgvcb-10" value="" style="endArrow=classic;html=1;rounded=0;exitX=1;exitY=0.5;exitDx=0;exitDy=0;" edge="1" parent="1" source="m43kG4cEQO-_27Gcgvcb-2" target="m43kG4cEQO-_27Gcgvcb-3">
          <mxGeometry width="50" height="50" relative="1" as="geometry">
            <mxPoint x="530" y="140" as="sourcePoint" />
            <mxPoint x="470" y="110" as="targetPoint" />
          </mxGeometry>
        </mxCell>
        <mxCell id="m43kG4cEQO-_27Gcgvcb-11" value="pull" style="edgeLabel;html=1;align=center;verticalAlign=middle;resizable=0;points=[];" vertex="1" connectable="0" parent="m43kG4cEQO-_27Gcgvcb-10">
          <mxGeometry x="0.1577" y="-1" relative="1" as="geometry">
            <mxPoint x="-13" y="-1" as="offset" />
          </mxGeometry>
        </mxCell>
        <mxCell id="m43kG4cEQO-_27Gcgvcb-13" value="" style="endArrow=classic;startArrow=classic;html=1;rounded=0;entryX=0.5;entryY=1;entryDx=0;entryDy=0;" edge="1" parent="1" target="m43kG4cEQO-_27Gcgvcb-2">
          <mxGeometry width="50" height="50" relative="1" as="geometry">
            <mxPoint x="365" y="290" as="sourcePoint" />
            <mxPoint x="410" y="250" as="targetPoint" />
          </mxGeometry>
        </mxCell>
        <mxCell id="m43kG4cEQO-_27Gcgvcb-14" value="Prometheus&lt;br&gt;(report maker?)" style="rounded=1;whiteSpace=wrap;html=1;" vertex="1" parent="1">
          <mxGeometry x="305" y="290" width="120" height="60" as="geometry" />
        </mxCell>
        <mxCell id="m43kG4cEQO-_27Gcgvcb-15" value="" style="endArrow=none;html=1;rounded=0;" edge="1" parent="1">
          <mxGeometry width="50" height="50" relative="1" as="geometry">
            <mxPoint x="303" y="950" as="sourcePoint" />
            <mxPoint x="303" y="670" as="targetPoint" />
          </mxGeometry>
        </mxCell>
        <mxCell id="m43kG4cEQO-_27Gcgvcb-16" value="Deepweb puller" style="rounded=1;whiteSpace=wrap;html=1;" vertex="1" parent="1">
          <mxGeometry x="-57" y="770" width="120" height="60" as="geometry" />
        </mxCell>
        <mxCell id="m43kG4cEQO-_27Gcgvcb-17" value="" style="endArrow=classic;html=1;rounded=0;entryX=0;entryY=0.25;entryDx=0;entryDy=0;exitX=0.999;exitY=0.13;exitDx=0;exitDy=0;exitPerimeter=0;" edge="1" parent="1" source="m43kG4cEQO-_27Gcgvcb-21" target="m43kG4cEQO-_27Gcgvcb-16">
          <mxGeometry width="50" height="50" relative="1" as="geometry">
            <mxPoint x="-112" y="650" as="sourcePoint" />
            <mxPoint x="-167" y="710" as="targetPoint" />
          </mxGeometry>
        </mxCell>
        <mxCell id="m43kG4cEQO-_27Gcgvcb-19" value="" style="endArrow=classic;html=1;rounded=0;entryX=-0.002;entryY=0.401;entryDx=0;entryDy=0;entryPerimeter=0;exitX=1.007;exitY=0.11;exitDx=0;exitDy=0;exitPerimeter=0;" edge="1" parent="1" source="m43kG4cEQO-_27Gcgvcb-54" target="m43kG4cEQO-_27Gcgvcb-16">
          <mxGeometry width="50" height="50" relative="1" as="geometry">
            <mxPoint x="-235" y="800" as="sourcePoint" />
            <mxPoint x="-167" y="760" as="targetPoint" />
          </mxGeometry>
        </mxCell>
        <mxCell id="m43kG4cEQO-_27Gcgvcb-21" value="Search engine deepweb" style="swimlane;fontStyle=0;childLayout=stackLayout;horizontal=1;startSize=30;horizontalStack=0;resizeParent=1;resizeParentMax=0;resizeLast=0;collapsible=1;marginBottom=0;whiteSpace=wrap;html=1;" vertex="1" parent="1">
          <mxGeometry x="-530" y="500" width="303" height="190" as="geometry">
            <mxRectangle x="-530" y="500" width="170" height="30" as="alternateBounds" />
          </mxGeometry>
        </mxCell>
        <mxCell id="m43kG4cEQO-_27Gcgvcb-22" value="leakdatabase....onion (require selenium)&lt;br&gt;&lt;span style=&quot;white-space: pre;&quot;&gt;	&lt;/span&gt;search ku.th&lt;br&gt;&lt;span style=&quot;white-space: pre;&quot;&gt;	&lt;/span&gt;search ku.ac.th&lt;br&gt;&lt;span style=&quot;white-space: pre;&quot;&gt;	&lt;/span&gt;and grab webpage result" style="text;strokeColor=none;fillColor=none;align=left;verticalAlign=top;spacingLeft=4;spacingRight=4;overflow=hidden;points=[[0,0.5],[1,0.5]];portConstraint=eastwest;rotatable=0;whiteSpace=wrap;html=1;" vertex="1" parent="m43kG4cEQO-_27Gcgvcb-21">
          <mxGeometry y="30" width="303" height="100" as="geometry" />
        </mxCell>
        <mxCell id="m43kG4cEQO-_27Gcgvcb-23" value="Item 2" style="text;strokeColor=none;fillColor=none;align=left;verticalAlign=middle;spacingLeft=4;spacingRight=4;overflow=hidden;points=[[0,0.5],[1,0.5]];portConstraint=eastwest;rotatable=0;whiteSpace=wrap;html=1;" vertex="1" parent="m43kG4cEQO-_27Gcgvcb-21">
          <mxGeometry y="130" width="303" height="30" as="geometry" />
        </mxCell>
        <mxCell id="m43kG4cEQO-_27Gcgvcb-24" value="Item 3" style="text;strokeColor=none;fillColor=none;align=left;verticalAlign=middle;spacingLeft=4;spacingRight=4;overflow=hidden;points=[[0,0.5],[1,0.5]];portConstraint=eastwest;rotatable=0;whiteSpace=wrap;html=1;" vertex="1" parent="m43kG4cEQO-_27Gcgvcb-21">
          <mxGeometry y="160" width="303" height="30" as="geometry" />
        </mxCell>
        <mxCell id="m43kG4cEQO-_27Gcgvcb-26" value="" style="endArrow=classic;html=1;rounded=0;exitX=1;exitY=0.5;exitDx=0;exitDy=0;" edge="1" parent="1" source="m43kG4cEQO-_27Gcgvcb-16">
          <mxGeometry width="50" height="50" relative="1" as="geometry">
            <mxPoint x="143" y="860" as="sourcePoint" />
            <mxPoint x="290" y="800" as="targetPoint" />
          </mxGeometry>
        </mxCell>
        <mxCell id="m43kG4cEQO-_27Gcgvcb-27" value="push" style="edgeLabel;html=1;align=center;verticalAlign=middle;resizable=0;points=[];" vertex="1" connectable="0" parent="m43kG4cEQO-_27Gcgvcb-26">
          <mxGeometry x="0.1741" y="1" relative="1" as="geometry">
            <mxPoint x="-11" y="1" as="offset" />
          </mxGeometry>
        </mxCell>
        <mxCell id="m43kG4cEQO-_27Gcgvcb-28" value="" style="endArrow=classic;html=1;rounded=0;entryX=0;entryY=0.75;entryDx=0;entryDy=0;exitX=1.009;exitY=0.119;exitDx=0;exitDy=0;exitPerimeter=0;" edge="1" parent="1" source="m43kG4cEQO-_27Gcgvcb-40" target="m43kG4cEQO-_27Gcgvcb-16">
          <mxGeometry width="50" height="50" relative="1" as="geometry">
            <mxPoint x="-220" y="970" as="sourcePoint" />
            <mxPoint x="-157" y="920" as="targetPoint" />
          </mxGeometry>
        </mxCell>
        <mxCell id="m43kG4cEQO-_27Gcgvcb-29" value="pull_interval=0.5" style="text;html=1;strokeColor=none;fillColor=none;align=center;verticalAlign=middle;whiteSpace=wrap;rounded=0;" vertex="1" parent="1">
          <mxGeometry x="-47" y="840" width="100" height="30" as="geometry" />
        </mxCell>
        <mxCell id="m43kG4cEQO-_27Gcgvcb-35" value="push format (keyword and url)" style="swimlane;fontStyle=0;childLayout=stackLayout;horizontal=1;startSize=30;horizontalStack=0;resizeParent=1;resizeParentMax=0;resizeLast=0;collapsible=1;marginBottom=0;whiteSpace=wrap;html=1;" vertex="1" parent="1">
          <mxGeometry x="90" y="820" width="180" height="120" as="geometry" />
        </mxCell>
        <mxCell id="m43kG4cEQO-_27Gcgvcb-36" value="kasetsart : [url1,url2,url3]" style="text;strokeColor=none;fillColor=none;align=left;verticalAlign=middle;spacingLeft=4;spacingRight=4;overflow=hidden;points=[[0,0.5],[1,0.5]];portConstraint=eastwest;rotatable=0;whiteSpace=wrap;html=1;" vertex="1" parent="m43kG4cEQO-_27Gcgvcb-35">
          <mxGeometry y="30" width="180" height="30" as="geometry" />
        </mxCell>
        <mxCell id="m43kG4cEQO-_27Gcgvcb-37" value="ku.th : [url1,url2,url3]" style="text;strokeColor=none;fillColor=none;align=left;verticalAlign=middle;spacingLeft=4;spacingRight=4;overflow=hidden;points=[[0,0.5],[1,0.5]];portConstraint=eastwest;rotatable=0;whiteSpace=wrap;html=1;" vertex="1" parent="m43kG4cEQO-_27Gcgvcb-35">
          <mxGeometry y="60" width="180" height="30" as="geometry" />
        </mxCell>
        <mxCell id="m43kG4cEQO-_27Gcgvcb-38" value="Item 3" style="text;strokeColor=none;fillColor=none;align=left;verticalAlign=middle;spacingLeft=4;spacingRight=4;overflow=hidden;points=[[0,0.5],[1,0.5]];portConstraint=eastwest;rotatable=0;whiteSpace=wrap;html=1;" vertex="1" parent="m43kG4cEQO-_27Gcgvcb-35">
          <mxGeometry y="90" width="180" height="30" as="geometry" />
        </mxCell>
        <mxCell id="m43kG4cEQO-_27Gcgvcb-40" value="Link container" style="swimlane;fontStyle=0;childLayout=stackLayout;horizontal=1;startSize=30;horizontalStack=0;resizeParent=1;resizeParentMax=0;resizeLast=0;collapsible=1;marginBottom=0;whiteSpace=wrap;html=1;" vertex="1" parent="1">
          <mxGeometry x="-410" y="920" width="200" height="140" as="geometry" />
        </mxCell>
        <mxCell id="m43kG4cEQO-_27Gcgvcb-41" value="use darkweblink v3&lt;br&gt;&lt;span style=&quot;white-space: pre;&quot;&gt;	&lt;/span&gt;direct webpage checking" style="text;strokeColor=none;fillColor=none;align=left;verticalAlign=middle;spacingLeft=4;spacingRight=4;overflow=hidden;points=[[0,0.5],[1,0.5]];portConstraint=eastwest;rotatable=0;whiteSpace=wrap;html=1;" vertex="1" parent="m43kG4cEQO-_27Gcgvcb-40">
          <mxGeometry y="30" width="200" height="50" as="geometry" />
        </mxCell>
        <mxCell id="m43kG4cEQO-_27Gcgvcb-42" value="Item 2" style="text;strokeColor=none;fillColor=none;align=left;verticalAlign=middle;spacingLeft=4;spacingRight=4;overflow=hidden;points=[[0,0.5],[1,0.5]];portConstraint=eastwest;rotatable=0;whiteSpace=wrap;html=1;" vertex="1" parent="m43kG4cEQO-_27Gcgvcb-40">
          <mxGeometry y="80" width="200" height="30" as="geometry" />
        </mxCell>
        <mxCell id="m43kG4cEQO-_27Gcgvcb-43" value="Item 3" style="text;strokeColor=none;fillColor=none;align=left;verticalAlign=middle;spacingLeft=4;spacingRight=4;overflow=hidden;points=[[0,0.5],[1,0.5]];portConstraint=eastwest;rotatable=0;whiteSpace=wrap;html=1;" vertex="1" parent="m43kG4cEQO-_27Gcgvcb-40">
          <mxGeometry y="110" width="200" height="30" as="geometry" />
        </mxCell>
        <mxCell id="m43kG4cEQO-_27Gcgvcb-45" value="FastAPI server&lt;br&gt;(port=5000)" style="swimlane;fontStyle=0;childLayout=stackLayout;horizontal=1;startSize=40;horizontalStack=0;resizeParent=1;resizeParentMax=0;resizeLast=0;collapsible=1;marginBottom=0;whiteSpace=wrap;html=1;" vertex="1" parent="1">
          <mxGeometry x="350" y="730" width="190" height="130" as="geometry" />
        </mxCell>
        <mxCell id="m43kG4cEQO-_27Gcgvcb-46" value="Item 1" style="text;strokeColor=none;fillColor=none;align=left;verticalAlign=middle;spacingLeft=4;spacingRight=4;overflow=hidden;points=[[0,0.5],[1,0.5]];portConstraint=eastwest;rotatable=0;whiteSpace=wrap;html=1;" vertex="1" parent="m43kG4cEQO-_27Gcgvcb-45">
          <mxGeometry y="40" width="190" height="30" as="geometry" />
        </mxCell>
        <mxCell id="m43kG4cEQO-_27Gcgvcb-47" value="Item 2" style="text;strokeColor=none;fillColor=none;align=left;verticalAlign=middle;spacingLeft=4;spacingRight=4;overflow=hidden;points=[[0,0.5],[1,0.5]];portConstraint=eastwest;rotatable=0;whiteSpace=wrap;html=1;" vertex="1" parent="m43kG4cEQO-_27Gcgvcb-45">
          <mxGeometry y="70" width="190" height="30" as="geometry" />
        </mxCell>
        <mxCell id="m43kG4cEQO-_27Gcgvcb-48" value="Item 3" style="text;strokeColor=none;fillColor=none;align=left;verticalAlign=middle;spacingLeft=4;spacingRight=4;overflow=hidden;points=[[0,0.5],[1,0.5]];portConstraint=eastwest;rotatable=0;whiteSpace=wrap;html=1;" vertex="1" parent="m43kG4cEQO-_27Gcgvcb-45">
          <mxGeometry y="100" width="190" height="30" as="geometry" />
        </mxCell>
        <mxCell id="m43kG4cEQO-_27Gcgvcb-49" value="" style="endArrow=classic;startArrow=classic;html=1;rounded=0;entryX=0.506;entryY=1.023;entryDx=0;entryDy=0;entryPerimeter=0;exitX=0.503;exitY=-0.012;exitDx=0;exitDy=0;exitPerimeter=0;" edge="1" parent="1" source="m43kG4cEQO-_27Gcgvcb-50" target="m43kG4cEQO-_27Gcgvcb-48">
          <mxGeometry width="50" height="50" relative="1" as="geometry">
            <mxPoint x="460" y="930" as="sourcePoint" />
            <mxPoint x="500" y="880" as="targetPoint" />
          </mxGeometry>
        </mxCell>
        <mxCell id="m43kG4cEQO-_27Gcgvcb-50" value="Prometheus" style="swimlane;fontStyle=0;childLayout=stackLayout;horizontal=1;startSize=30;horizontalStack=0;resizeParent=1;resizeParentMax=0;resizeLast=0;collapsible=1;marginBottom=0;whiteSpace=wrap;html=1;" vertex="1" parent="1">
          <mxGeometry x="375" y="930" width="140" height="120" as="geometry" />
        </mxCell>
        <mxCell id="m43kG4cEQO-_27Gcgvcb-51" value="Item 1" style="text;strokeColor=none;fillColor=none;align=left;verticalAlign=middle;spacingLeft=4;spacingRight=4;overflow=hidden;points=[[0,0.5],[1,0.5]];portConstraint=eastwest;rotatable=0;whiteSpace=wrap;html=1;" vertex="1" parent="m43kG4cEQO-_27Gcgvcb-50">
          <mxGeometry y="30" width="140" height="30" as="geometry" />
        </mxCell>
        <mxCell id="m43kG4cEQO-_27Gcgvcb-52" value="Item 2" style="text;strokeColor=none;fillColor=none;align=left;verticalAlign=middle;spacingLeft=4;spacingRight=4;overflow=hidden;points=[[0,0.5],[1,0.5]];portConstraint=eastwest;rotatable=0;whiteSpace=wrap;html=1;" vertex="1" parent="m43kG4cEQO-_27Gcgvcb-50">
          <mxGeometry y="60" width="140" height="30" as="geometry" />
        </mxCell>
        <mxCell id="m43kG4cEQO-_27Gcgvcb-53" value="Item 3" style="text;strokeColor=none;fillColor=none;align=left;verticalAlign=middle;spacingLeft=4;spacingRight=4;overflow=hidden;points=[[0,0.5],[1,0.5]];portConstraint=eastwest;rotatable=0;whiteSpace=wrap;html=1;" vertex="1" parent="m43kG4cEQO-_27Gcgvcb-50">
          <mxGeometry y="90" width="140" height="30" as="geometry" />
        </mxCell>
        <mxCell id="m43kG4cEQO-_27Gcgvcb-54" value="Onion Search Engine" style="swimlane;fontStyle=0;childLayout=stackLayout;horizontal=1;startSize=30;horizontalStack=0;resizeParent=1;resizeParentMax=0;resizeLast=0;collapsible=1;marginBottom=0;whiteSpace=wrap;html=1;" vertex="1" parent="1">
          <mxGeometry x="-458.5" y="730" width="160" height="120" as="geometry" />
        </mxCell>
        <mxCell id="m43kG4cEQO-_27Gcgvcb-55" value="search=&quot;kasetsart&quot;" style="text;strokeColor=none;fillColor=none;align=left;verticalAlign=middle;spacingLeft=4;spacingRight=4;overflow=hidden;points=[[0,0.5],[1,0.5]];portConstraint=eastwest;rotatable=0;whiteSpace=wrap;html=1;" vertex="1" parent="m43kG4cEQO-_27Gcgvcb-54">
          <mxGeometry y="30" width="160" height="30" as="geometry" />
        </mxCell>
        <mxCell id="m43kG4cEQO-_27Gcgvcb-56" value="search=&quot;ku.th&quot;" style="text;strokeColor=none;fillColor=none;align=left;verticalAlign=middle;spacingLeft=4;spacingRight=4;overflow=hidden;points=[[0,0.5],[1,0.5]];portConstraint=eastwest;rotatable=0;whiteSpace=wrap;html=1;" vertex="1" parent="m43kG4cEQO-_27Gcgvcb-54">
          <mxGeometry y="60" width="160" height="30" as="geometry" />
        </mxCell>
        <mxCell id="m43kG4cEQO-_27Gcgvcb-57" value="Item 3" style="text;strokeColor=none;fillColor=none;align=left;verticalAlign=middle;spacingLeft=4;spacingRight=4;overflow=hidden;points=[[0,0.5],[1,0.5]];portConstraint=eastwest;rotatable=0;whiteSpace=wrap;html=1;" vertex="1" parent="m43kG4cEQO-_27Gcgvcb-54">
          <mxGeometry y="90" width="160" height="30" as="geometry" />
        </mxCell>
        <mxCell id="m43kG4cEQO-_27Gcgvcb-58" value="" style="endArrow=none;html=1;rounded=0;" edge="1" parent="1">
          <mxGeometry width="50" height="50" relative="1" as="geometry">
            <mxPoint x="650" y="950" as="sourcePoint" />
            <mxPoint x="650" y="670" as="targetPoint" />
          </mxGeometry>
        </mxCell>
        <mxCell id="m43kG4cEQO-_27Gcgvcb-59" value="Grafana" style="swimlane;fontStyle=0;childLayout=stackLayout;horizontal=1;startSize=30;horizontalStack=0;resizeParent=1;resizeParentMax=0;resizeLast=0;collapsible=1;marginBottom=0;whiteSpace=wrap;html=1;" vertex="1" parent="1">
          <mxGeometry x="710" y="710" width="140" height="120" as="geometry" />
        </mxCell>
        <mxCell id="m43kG4cEQO-_27Gcgvcb-60" value="Item 1" style="text;strokeColor=none;fillColor=none;align=left;verticalAlign=middle;spacingLeft=4;spacingRight=4;overflow=hidden;points=[[0,0.5],[1,0.5]];portConstraint=eastwest;rotatable=0;whiteSpace=wrap;html=1;" vertex="1" parent="m43kG4cEQO-_27Gcgvcb-59">
          <mxGeometry y="30" width="140" height="30" as="geometry" />
        </mxCell>
        <mxCell id="m43kG4cEQO-_27Gcgvcb-61" value="Item 2" style="text;strokeColor=none;fillColor=none;align=left;verticalAlign=middle;spacingLeft=4;spacingRight=4;overflow=hidden;points=[[0,0.5],[1,0.5]];portConstraint=eastwest;rotatable=0;whiteSpace=wrap;html=1;" vertex="1" parent="m43kG4cEQO-_27Gcgvcb-59">
          <mxGeometry y="60" width="140" height="30" as="geometry" />
        </mxCell>
        <mxCell id="m43kG4cEQO-_27Gcgvcb-62" value="Item 3" style="text;strokeColor=none;fillColor=none;align=left;verticalAlign=middle;spacingLeft=4;spacingRight=4;overflow=hidden;points=[[0,0.5],[1,0.5]];portConstraint=eastwest;rotatable=0;whiteSpace=wrap;html=1;" vertex="1" parent="m43kG4cEQO-_27Gcgvcb-59">
          <mxGeometry y="90" width="140" height="30" as="geometry" />
        </mxCell>
      </root>
    </mxGraphModel>
  </diagram>
</mxfile>
